<?xml version="1.0" encoding="utf-8"?>
<!-- Generator: Adobe Illustrator 19.1.0, SVG Export Plug-In . SVG Version: 6.00 Build 0)  -->
<svg version="1.1" id="Layer_1" xmlns="http://www.w3.org/2000/svg" xmlns:xlink="http://www.w3.org/1999/xlink" x="0px" y="0px"
	 viewBox="0 0 88.5 85.3" style="enable-background:new 0 0 88.5 85.3;" xml:space="preserve">
<style type="text/css">
	.st0{fill:#FFFFFF;}
</style>
<g>
	<path d="M28.4,85.2C10.2,78.4-2.9,59.8,0.6,37c3-20,19.9-35.3,40-36.9C64-1.7,82.8,14,87.4,34.3c4.7,20.9-5.6,42.5-27.2,51
		c-2.2-15.7-4.4-31.4-6.6-47.2c0.6,0,1.1,0.1,1.5,0c0.5-0.2,0.8-0.7,1.2-1.1c-0.4-0.3-0.7-0.7-1.2-0.9c-0.3-0.1-0.7,0-1.1,0
		c-6.5,0-13,0-19.6,0c-0.3,0-0.7-0.1-0.9,0c-0.5,0.2-1.2,0.5-1.3,0.9c-0.1,0.8,0.6,1.1,1.3,1.1c0.4,0,0.8,0,1.3,0.1
		C32.7,53.9,30.5,69.5,28.4,85.2z M52.6,34.5c0-2.2,0-4.2,0-6.3c0-0.2-0.5-0.7-0.8-0.7c-5,0-10.1,0-15.1,0c-0.3,0-0.8,0.4-0.8,0.6
		c-0.1,2.1,0,4.2,0,6.4C41.5,34.5,46.9,34.5,52.6,34.5z M20.7,20.2c-0.2,0.1-0.6,0.2-0.8,0.5c-0.9,1.1-1.7,2.2-2.4,3.4
		c-1.8,2.9-2.3,6-1.7,9.3c0.5,3.1,2,5.7,4.1,8c0.5,0.5,1,0.9,1.7,0.3c0.6-0.6,0.8-1.3,0.2-2c-0.1-0.1-0.2-0.2-0.2-0.3
		c-1.6-1.9-2.9-4-3.1-6.6c-0.2-3.2-0.1-6.2,2.1-8.8c0.5-0.6,1-1.3,1.4-2C22.2,21.2,21.7,20.3,20.7,20.2z M72.9,31
		c0.1,0,0.2-0.1,0.3-0.1c-0.5-1.9-0.8-3.9-1.6-5.7c-0.7-1.7-2-3.1-3.1-4.6c-0.2-0.3-1.2-0.4-1.5-0.2c-0.3,0.3-0.4,1-0.3,1.6
		c0.1,0.4,0.5,0.8,0.8,1.2c0.5,0.7,1.2,1.4,1.6,2.2c1.6,3.5,2,9.7-1.9,13.8c-0.8,0.9-0.9,1.9-0.2,2.4c1,0.7,1.6-0.1,2.1-0.7
		C71.4,38.1,73,34.9,72.9,31z M44.2,26.1c3.4,0,6.7,0,10.1,0c0.3,0,0.6-0.2,0.9-0.3c-0.2-0.3-0.2-0.9-0.5-1
		c-1.1-0.5-2.3-1.1-3.4-1.1c-4.3-0.1-8.7,0-13-0.1c-1.5,0-2.8,0.5-4.1,1c-0.4,0.2-0.6,0.7-0.8,1c0.4,0.2,0.8,0.5,1.2,0.5
		C37.7,26.2,40.9,26.1,44.2,26.1z M67.6,30.8c-0.2-2.6-0.7-5.3-3.1-7.2c-0.3-0.2-0.9-0.1-1.3-0.2c0,0.4-0.1,1,0.1,1.3
		c0.6,1.3,1.6,2.5,2,3.9c1,3.1,0.1,6-2,8.4c-0.5,0.6-0.7,1.2,0,1.6c0.3,0.2,1-0.1,1.4-0.4C66.8,36.4,67.5,33.8,67.6,30.8z
		 M20.9,31.4c-0.1,2.6,0.8,5.2,3.1,7.2c0.3,0.2,0.8,0.2,1.2,0.2c0.1-0.5,0.1-0.9,0.1-1.4c0-0.2-0.2-0.3-0.4-0.5
		c-3.5-4.6-2.6-8.3,0.1-12c0.4-0.5,0.7-0.9,0.1-1.4c-0.6-0.6-1-0.2-1.4,0.2C21.6,25.6,20.9,28.1,20.9,31.4z M63.5,30.8
		c0-1.7-0.7-3.2-2-4.5c-0.2-0.2-0.6-0.1-0.9-0.2c0,0.3-0.1,0.7-0.1,1c0,0.2,0.3,0.5,0.4,0.7c1.4,1.9,1.5,4.2,0.1,6.2
		c-0.2,0.3-0.5,0.7-0.6,1c-0.1,0.3,0.1,0.7,0.1,1c0.3-0.1,0.7-0.1,0.9-0.3C62.8,34.4,63.6,32.9,63.5,30.8z M27.9,26
		c-0.1,0-0.3-0.1-0.4-0.1c-0.3,0.2-0.6,0.4-0.8,0.7c-2.4,2.5-2.4,6.3-0.1,8.9c0.3,0.3,0.8,0.4,1.1,0.6c0-0.5,0.1-1-0.1-1.3
		c-0.9-1.5-1.7-3-1.1-4.8c0.3-0.9,0.8-1.7,1.2-2.6C27.9,26.9,27.9,26.4,27.9,26z M48.8,21.7c-1.5-0.9-2.8-1.7-4-2.5
		c-0.2-0.1-0.6-0.2-0.8-0.1c-1.4,0.8-2.7,1.6-4.3,2.6C42.9,21.7,45.7,21.7,48.8,21.7z"/>
	<path class="st0" d="M52.6,34.5c-5.7,0-11.2,0-16.8,0c0-2.2,0-4.3,0-6.4c0-0.2,0.5-0.6,0.8-0.6c5,0,10.1,0,15.1,0
		c0.3,0,0.8,0.4,0.8,0.7C52.6,30.3,52.6,32.3,52.6,34.5z"/>
	<path class="st0" d="M20.7,20.2c1,0,1.5,1,1.1,1.8c-0.4,0.7-0.9,1.3-1.4,2c-2.1,2.6-2.3,5.7-2.1,8.8c0.2,2.6,1.4,4.7,3.1,6.6
		c0.1,0.1,0.2,0.2,0.2,0.3c0.6,0.7,0.5,1.4-0.2,2c-0.6,0.6-1.2,0.2-1.7-0.3c-2.1-2.3-3.5-4.9-4.1-8c-0.6-3.3-0.1-6.4,1.7-9.3
		c0.7-1.2,1.6-2.3,2.4-3.4C20,20.4,20.5,20.3,20.7,20.2z"/>
	<path class="st0" d="M72.9,31c0.1,3.8-1.5,7-3.9,9.9c-0.5,0.6-1.1,1.4-2.1,0.7c-0.7-0.5-0.6-1.6,0.2-2.4c3.9-4,3.5-10.3,1.9-13.8
		c-0.4-0.8-1-1.5-1.6-2.2c-0.3-0.4-0.7-0.8-0.8-1.2c-0.1-0.5,0-1.3,0.3-1.6c0.3-0.2,1.3-0.1,1.5,0.2c1.1,1.5,2.4,2.9,3.1,4.6
		c0.8,1.8,1.1,3.8,1.6,5.7C73.2,31,73.1,31,72.9,31z"/>
	<path class="st0" d="M44.2,26.1c-3.2,0-6.5,0-9.7,0c-0.4,0-0.8-0.3-1.2-0.5c0.3-0.4,0.5-0.9,0.8-1c1.3-0.6,2.6-1.1,4.1-1
		c4.3,0.1,8.7,0,13,0.1c1.2,0,2.3,0.7,3.4,1.1c0.3,0.1,0.3,0.6,0.5,1c-0.3,0.1-0.6,0.3-0.9,0.3C50.9,26.2,47.5,26.1,44.2,26.1z"/>
	<path class="st0" d="M67.6,30.8c-0.1,3-0.8,5.6-2.9,7.5c-0.3,0.3-1.1,0.5-1.4,0.4c-0.7-0.4-0.5-1.1,0-1.6c2.1-2.5,3-5.3,2-8.4
		c-0.4-1.4-1.4-2.6-2-3.9c-0.2-0.4-0.1-0.9-0.1-1.3c0.4,0,1-0.1,1.3,0.2C66.9,25.5,67.4,28.2,67.6,30.8z"/>
	<path class="st0" d="M20.9,31.4c0-3.2,0.7-5.8,2.9-7.7c0.5-0.4,0.9-0.8,1.4-0.2c0.5,0.5,0.2,0.9-0.1,1.4c-2.7,3.8-3.6,7.5-0.1,12
		c0.1,0.2,0.4,0.3,0.4,0.5c0,0.5-0.1,0.9-0.1,1.4c-0.4-0.1-1,0-1.2-0.2C21.7,36.5,20.8,33.9,20.9,31.4z"/>
	<path class="st0" d="M63.5,30.8c0,2-0.8,3.6-2,4.9c-0.2,0.2-0.6,0.2-0.9,0.3c-0.1-0.4-0.2-0.7-0.1-1c0.1-0.4,0.3-0.7,0.6-1
		c1.3-2,1.3-4.3-0.1-6.2c-0.2-0.2-0.4-0.4-0.4-0.7c-0.1-0.3,0.1-0.6,0.1-1c0.3,0.1,0.7,0,0.9,0.2C62.8,27.6,63.5,29.1,63.5,30.8z"/>
	<path class="st0" d="M27.9,26c0,0.4,0,0.9-0.1,1.3c-0.3,0.9-0.9,1.7-1.2,2.6c-0.6,1.8,0.3,3.3,1.1,4.8c0.2,0.4,0.1,0.9,0.1,1.3
		c-0.4-0.2-0.9-0.3-1.1-0.6c-2.3-2.6-2.3-6.3,0.1-8.9c0.2-0.3,0.5-0.4,0.8-0.7C27.6,25.9,27.8,26,27.9,26z"/>
	<path class="st0" d="M48.8,21.7c-3.1,0-5.9,0-9.1,0c1.6-1,2.9-1.8,4.3-2.6c0.2-0.1,0.5,0,0.8,0.1C46,20,47.3,20.8,48.8,21.7z"/>
</g>
</svg>
